<?xml version="1.0" standalone="no"?>
<!DOCTYPE svg PUBLIC "-//W3C//DTD SVG 20010904//EN"
 "http://www.w3.org/TR/2001/REC-SVG-20010904/DTD/svg10.dtd">
<svg version="1.0" xmlns="http://www.w3.org/2000/svg"
 width="489.000000pt" height="137.000000pt" viewBox="0 0 489.000000 137.000000"
 preserveAspectRatio="xMidYMid meet">

<g transform="translate(0.000000,137.000000) scale(0.100000,-0.100000)"
fill="#000000" stroke="none">
<path d="M3107 1243 c-2 -5 -7 -25 -11 -45 -5 -29 -12 -38 -26 -38 -11 0 -20
7 -20 15 0 8 -4 15 -10 15 -5 0 -10 -9 -10 -20 0 -24 -13 -26 -30 -5 -17 20
-27 19 -33 -4 -4 -16 -18 -19 -102 -23 -75 -4 -101 -9 -110 -22 -7 -9 -17 -16
-24 -16 -6 0 -11 -4 -11 -10 0 -6 50 -10 129 -10 94 0 131 -3 134 -12 4 -10 6
-10 6 0 1 6 9 12 20 12 17 0 19 -16 25 -292 4 -161 9 -322 12 -358 4 -42 2
-61 -4 -55 -5 6 -13 64 -17 130 -16 266 -22 278 -24 48 -1 -201 -3 -223 -18
-231 -10 -5 -55 -12 -101 -15 -45 -3 -89 -11 -98 -18 -33 -28 -139 123 -246
349 -48 104 -72 142 -90 142 -13 0 -9 -44 7 -84 8 -20 14 -36 12 -36 -2 0 -23
23 -47 51 -36 43 -41 53 -27 60 84 48 231 209 278 307 21 44 42 70 70 89 59
39 47 38 -28 -2 -91 -47 -188 -121 -298 -227 l-91 -87 -11 143 c-12 160 -22
193 -54 175 -26 -13 -46 -60 -55 -128 -4 -29 -10 -47 -14 -41 -4 7 -10 -43
-12 -111 -4 -81 -11 -138 -22 -164 -15 -38 -16 -31 -13 183 2 170 5 225 15
231 9 5 11 17 6 35 -8 33 -24 44 -24 17 0 -14 -5 -19 -14 -15 -35 13 -37 -28
-34 -489 3 -457 8 -515 41 -505 7 3 15 32 19 72 9 89 22 101 15 13 -2 -37 -1
-70 4 -73 20 -12 83 177 116 346 10 54 22 90 29 90 20 0 138 -134 168 -191 46
-87 110 -179 125 -179 10 0 12 9 8 36 -7 40 -38 94 -98 169 -21 28 -62 95 -90
150 l-50 100 39 -42 c22 -23 65 -82 97 -130 32 -48 98 -143 148 -211 79 -108
91 -121 102 -106 11 16 15 16 55 0 36 -14 77 -16 288 -15 270 2 342 6 342 20
0 5 -12 7 -27 4 -16 -2 -118 -7 -228 -11 -149 -4 -196 -2 -182 6 9 6 21 9 26
6 5 -3 12 1 15 10 5 13 28 15 163 11 87 -2 147 -1 133 3 -20 6 -11 9 38 15 34
4 65 12 69 18 3 6 -8 7 -33 3 -22 -3 -97 -9 -167 -12 -135 -7 -167 0 -137 30
16 16 277 79 290 71 5 -3 11 -1 15 5 9 15 -18 12 -150 -15 -66 -14 -123 -25
-127 -25 -5 0 -9 143 -10 318 l-2 317 -7 -210 c-4 -116 -12 -255 -18 -310 -6
-55 -10 -106 -11 -112 0 -7 -4 -13 -10 -13 -5 0 -10 19 -10 43 -1 23 -7 83
-15 132 -22 131 -32 554 -14 565 7 5 17 6 21 4 4 -3 9 -148 9 -322 1 -193 5
-297 9 -267 5 28 9 170 9 318 l1 267 28 0 c56 1 178 13 197 20 11 4 -33 5 -97
2 -198 -8 -132 25 86 44 58 5 77 4 72 -5 -4 -6 -3 -11 3 -11 17 0 21 18 5 24
-9 3 -72 6 -140 6 l-124 0 0 45 c0 40 -11 58 -23 38z m-986 -634 c-11 -27 -13
462 -3 521 4 19 8 -85 10 -231 1 -156 -2 -276 -7 -290z m164 529 c3 -13 9 -87
12 -166 6 -142 6 -142 -21 -180 -14 -21 -40 -52 -58 -68 l-31 -29 6 75 c3 41
15 102 26 134 23 65 20 90 -3 35 -19 -43 -19 -34 -2 72 20 121 54 182 71 127z
m798 -5 c-7 -2 -19 -2 -25 0 -7 3 -2 5 12 5 14 0 19 -2 13 -5z m-138 -13 c-16
-4 -64 -7 -105 -7 -65 0 -69 1 -30 7 65 10 175 10 135 0z m145 -10 c0 -5 -9
-10 -20 -10 -11 0 -20 5 -20 10 0 6 9 10 20 10 11 0 20 -4 20 -10z m-67 -7
c-7 -2 -19 -2 -25 0 -7 3 -2 5 12 5 14 0 19 -2 13 -5z m-363 -8 c0 -22 -94
-145 -153 -202 -74 -70 -137 -120 -137 -108 0 4 31 49 69 99 83 111 221 243
221 211z m288 -2 c-10 -2 -26 -2 -35 0 -10 3 -2 5 17 5 19 0 27 -2 18 -5z
m-553 -232 c-55 -68 -75 -84 -75 -60 0 13 121 141 128 135 2 -3 -22 -36 -53
-75z m-100 -114 c-8 -32 -28 -50 -51 -45 -15 2 -12 9 15 41 37 42 45 42 36 4z
m79 -59 c14 -24 32 -60 41 -82 l16 -38 -60 53 c-65 57 -67 60 -51 90 16 28 26
24 54 -23z m183 -128 c25 -54 35 -84 23 -70 -27 34 -98 178 -105 215 -5 28 -4
27 16 -10 12 -22 42 -83 66 -135z m-383 65 c-4 -55 -22 -95 -35 -73 -8 15 17
118 30 118 4 0 6 -20 5 -45z m49 5 c-16 -28 -33 -39 -33 -22 0 13 31 52 41 52
6 0 2 -13 -8 -30z m50 -57 c-19 -103 -72 -296 -84 -308 -12 -12 -12 255 0 288
13 32 70 97 86 97 10 0 10 -16 -2 -77z m-144 -233 c1 -91 -2 -130 -9 -120 -5
8 -9 78 -9 155 0 87 4 132 9 120 5 -11 9 -81 9 -155z m451 -10 c6 -11 8 -20 6
-20 -3 0 -10 9 -16 20 -6 11 -8 20 -6 20 3 0 10 -9 16 -20z m520 -25 c0 -9 -9
-15 -25 -15 -24 0 -32 10 -18 23 12 13 43 7 43 -8z m-73 -1 c-3 -3 -12 -4 -19
-1 -8 3 -5 6 6 6 11 1 17 -2 13 -5z m-54 -21 c-18 -2 -48 -2 -65 0 -18 2 -4 4
32 4 36 0 50 -2 33 -4z m42 -33 c-25 -11 -122 -11 -155 0 -16 5 10 8 75 8 64
0 93 -2 80 -8z"/>
<path d="M3519 1205 c-1 -27 -3 -59 -3 -69 -2 -25 -26 -33 -38 -12 -18 31 -28
15 -27 -41 1 -41 3 -50 8 -33 8 28 36 38 44 16 4 -9 -1 -17 -14 -21 -10 -4
-17 -11 -13 -16 3 -6 12 -5 21 3 13 10 15 9 12 -7 -3 -13 -14 -21 -32 -23
l-28 -3 3 -309 c3 -277 5 -310 21 -327 9 -11 17 -35 17 -54 0 -37 15 -68 26
-56 4 4 2 19 -5 33 -9 20 -8 35 4 70 8 25 16 68 17 97 1 29 4 -17 8 -101 4
-85 11 -157 17 -163 16 -16 26 6 13 30 -6 12 -10 99 -9 223 0 123 4 195 9 183
5 -11 9 -14 9 -7 1 7 15 12 36 12 30 0 35 -3 35 -22 0 -24 -26 -195 -36 -238
-3 -14 -2 -22 2 -18 8 9 44 173 44 204 0 18 9 23 63 34 34 6 73 18 87 26 34
18 26 17 -55 -6 -89 -25 -95 -25 -95 5 l0 25 104 0 c69 0 115 5 139 15 20 8
51 15 69 15 26 0 30 3 18 11 -12 8 -10 9 8 4 21 -6 82 13 82 26 0 10 -86 2
-220 -20 -132 -22 -200 -26 -200 -13 0 12 233 47 295 45 34 -1 45 1 35 7 -11
7 -4 10 25 11 l40 2 -45 8 c-25 4 -113 8 -197 8 l-152 1 -5 43 c-3 23 -7 58
-9 77 -2 19 -5 0 -5 -42 -2 -69 -4 -78 -21 -78 -17 0 -19 10 -23 113 -2 61 -4
113 -3 115 1 1 9 0 18 -4 9 -3 18 -20 20 -37 l4 -32 1 35 2 36 135 12 c75 7
165 19 202 28 l66 15 24 -28 c45 -55 65 -94 103 -207 48 -142 69 -184 132
-265 l50 -63 -23 -80 c-19 -64 -21 -83 -11 -98 7 -11 12 -31 12 -45 0 -44 17
-19 36 55 14 56 20 67 28 53 5 -10 14 -21 19 -25 8 -5 -49 -98 -122 -199 -9
-13 -10 -19 -2 -19 22 0 226 333 297 484 38 81 69 189 55 194 -5 2 2 30 15 64
13 33 28 88 34 122 6 34 13 74 16 90 4 19 3 26 -5 22 -6 -4 -11 -3 -11 3 0 5
-5 22 -10 37 -9 24 -13 25 -25 13 -7 -8 -29 -61 -48 -119 -41 -123 -146 -401
-157 -413 -4 -4 -1 23 6 60 7 37 25 133 39 213 14 80 30 165 35 190 17 84 22
136 11 119 -6 -9 -24 -92 -41 -185 -25 -140 -51 -253 -87 -377 -11 -36 -28 -8
-46 74 -57 270 -119 490 -134 475 -3 -3 11 -56 31 -118 42 -135 69 -246 62
-262 -2 -6 -5 -3 -5 7 -1 10 -20 75 -42 145 -41 126 -76 208 -85 199 -7 -7 17
-97 26 -97 4 0 15 -19 23 -42 24 -62 79 -279 73 -285 -17 -17 -150 265 -164
350 -7 37 -13 45 -57 69 -47 26 -57 28 -180 28 -116 0 -241 -11 -286 -26 -12
-3 -20 4 -27 26 -15 42 -29 37 -38 -12 l-7 -43 -9 33 c-26 102 -26 102 -29 47z
m81 -51 c0 -8 -7 -14 -15 -14 -15 0 -21 21 -9 33 10 9 24 -2 24 -19z m383 -14
c8 -30 -45 -40 -215 -40 -125 0 -148 2 -148 15 0 8 3 15 8 15 4 1 30 7 57 15
29 8 101 14 171 14 113 1 122 0 127 -19z m52 0 c-3 -5 -13 -10 -21 -10 -8 0
-14 5 -14 10 0 6 9 10 21 10 11 0 17 -4 14 -10z m30 -20 c-8 -13 1 -13 25 0
15 8 19 5 25 -17 4 -16 2 -29 -6 -33 -8 -5 -9 -20 -5 -44 4 -20 5 -36 3 -36
-2 0 -23 27 -46 60 l-42 60 23 9 c30 13 30 13 23 1z m-455 -10 c0 -12 -28 -25
-36 -17 -9 9 6 27 22 27 8 0 14 -5 14 -10z m400 -20 c0 -5 -9 -10 -20 -10 -11
0 -20 5 -20 10 0 6 9 10 20 10 11 0 20 -4 20 -10z m-203 -6 c-10 -10 -169 -24
-181 -16 -6 4 5 10 24 13 47 9 165 11 157 3z m192 -24 c9 -5 12 -10 6 -10 -5
0 -75 -9 -156 -21 -175 -24 -272 -23 -277 4 -3 12 3 17 22 17 18 0 26 -6 27
-17 1 -17 2 -17 6 0 3 11 15 17 36 18 18 0 68 6 112 14 82 14 196 11 224 -5z
m-396 3 c-7 -2 -19 -2 -25 0 -7 3 -2 5 12 5 14 0 19 -2 13 -5z m1053 -37 c-21
-51 -9 -45 14 7 l19 42 -5 -45 c-13 -105 -116 -358 -192 -474 -15 -23 -28 -46
-29 -51 -1 -6 -13 -30 -27 -55 -33 -57 -34 -32 -2 35 46 94 127 296 171 423
54 157 56 164 62 159 2 -3 -3 -21 -11 -41z m-481 -72 c21 -66 15 -78 -14 -30
-25 40 -42 92 -34 100 12 12 31 -16 48 -70z m-628 -156 c-2 -35 -3 -7 -3 62 0
69 1 97 3 63 2 -35 2 -91 0 -125z m42 45 c1 -56 -3 -93 -9 -93 -6 0 -10 45 -9
118 1 138 16 117 18 -25z m-80 30 c0 -54 -3 -118 -7 -143 -4 -25 -5 -103 -2
-173 3 -70 2 -131 -2 -135 -3 -4 -8 -16 -10 -27 -3 -12 -9 0 -16 33 -8 33 -12
145 -12 297 l0 245 25 0 c25 0 25 0 24 -97z m721 -116 c13 -45 31 -101 41
-124 26 -62 14 -53 -20 15 -26 52 -91 225 -91 240 1 4 11 -6 24 -21 12 -15 33
-65 46 -110z m-703 16 c-2 -16 -4 -5 -4 22 0 28 2 40 4 28 2 -13 2 -35 0 -50z
m802 -116 c45 -75 52 -92 45 -119 l-7 -33 -28 34 c-25 31 -78 157 -95 228 l-7
28 20 -25 c11 -14 43 -64 72 -113z m287 61 c-36 -110 -151 -324 -187 -347 -16
-10 -17 -8 -10 12 5 12 28 56 50 97 23 41 67 125 98 187 32 62 59 110 61 108
3 -2 -3 -28 -12 -57z m-751 23 c-51 -12 -205 -13 -205 -2 0 7 41 11 118 10 69
-1 105 -4 87 -8z m-265 -10 c0 -5 -7 -11 -15 -15 -15 -5 -20 5 -8 17 9 10 23
9 23 -2z m50 -1 c0 -5 -9 -10 -20 -10 -11 0 -20 5 -20 10 0 6 9 10 20 10 11 0
20 -4 20 -10z m37 -26 c-3 -3 -12 -4 -19 -1 -8 3 -5 6 6 6 11 1 17 -2 13 -5z
m-50 -10 c-3 -3 -12 -4 -19 -1 -8 3 -5 6 6 6 11 1 17 -2 13 -5z m263 -24 c-40
-14 -80 -19 -145 -18 l-90 1 95 7 c52 5 106 13 120 18 14 6 36 11 50 11 16 0
6 -7 -30 -19z m-257 3 c-7 -2 -19 -2 -25 0 -7 3 -2 5 12 5 14 0 19 -2 13 -5z
m-3 -17 c0 -2 -7 -6 -15 -10 -8 -3 -15 -1 -15 4 0 6 7 10 15 10 8 0 15 -2 15
-4z m-93 -68 c-2 -13 -4 -5 -4 17 -1 22 1 32 4 23 2 -10 2 -28 0 -40z m880 10
c-3 -8 -6 -5 -6 6 -1 11 2 17 5 13 3 -3 4 -12 1 -19z m-910 -70 c-3 -7 -5 -2
-5 12 0 14 2 19 5 13 2 -7 2 -19 0 -25z m855 -113 c-20 -60 -38 -102 -40 -91
-8 37 53 225 68 209 5 -4 -8 -57 -28 -118z"/>
<path d="M4556 1234 c-5 -14 -4 -15 9 -4 17 14 19 20 6 20 -5 0 -12 -7 -15
-16z"/>
<path d="M987 1196 c-39 -100 -115 -322 -152 -441 -26 -82 -58 -184 -71 -225
-13 -41 -24 -80 -24 -87 0 -7 -9 -13 -20 -13 -24 0 -26 -16 -4 -28 15 -8 15
-11 -2 -28 -15 -15 -19 -35 -20 -87 0 -37 2 -67 6 -67 4 0 13 27 20 60 7 33
17 63 21 66 11 7 11 6 -6 -101 -8 -50 -15 -101 -15 -115 1 -23 2 -22 16 10 8
19 24 73 35 120 23 99 28 114 34 109 2 -3 -5 -49 -15 -104 -11 -54 -18 -101
-16 -103 8 -8 31 45 56 133 l26 90 54 3 53 3 -6 -45 c-18 -129 -19 -201 -3
-221 16 -20 16 -20 31 -1 19 25 19 42 0 26 -25 -20 -29 13 -16 114 19 150 5
136 142 136 98 0 119 -3 119 -15 0 -26 41 -124 61 -147 l20 -23 -6 68 c-3 37
-8 82 -12 99 -5 24 -3 30 8 26 8 -2 28 -46 44 -98 17 -51 37 -96 44 -98 14 -5
13 16 -3 63 -4 11 7 -6 24 -39 17 -32 34 -56 37 -52 3 3 -11 45 -31 95 -44
109 -54 153 -35 148 8 -2 4 1 -8 7 -68 30 -217 534 -191 648 10 46 4 72 -15
65 -6 -2 -18 10 -26 27 -13 27 -15 28 -18 10 -2 -11 0 -39 5 -61 6 -28 6 -47
-3 -63 -10 -20 -13 -20 -18 -5 -4 9 -7 35 -7 58 l0 42 -20 -25 -20 -25 0 25
c0 31 -15 56 -24 42 -4 -6 -2 -40 4 -76 9 -56 8 -70 -9 -108 -28 -64 -183
-376 -177 -355 3 9 17 61 32 115 14 53 45 165 69 247 53 185 59 215 47 215 -5
0 -12 -6 -15 -14z m156 -176 c-3 -11 -7 -20 -9 -20 -2 0 -4 9 -4 20 0 11 4 20
9 20 5 0 7 -9 4 -20z m-51 -22 c-8 -8 -9 -4 -5 13 4 13 8 18 11 10 2 -7 -1
-18 -6 -23z m-176 -69 c-26 -88 -79 -264 -117 -387 -12 -40 -24 -70 -26 -68
-5 5 15 75 99 349 34 108 63 195 65 193 2 -2 -7 -41 -21 -87z m154 26 c0 -14
-108 -235 -109 -222 -1 4 7 24 17 45 11 20 32 74 47 119 16 45 32 80 37 77 4
-3 8 -11 8 -19z m60 -8 c0 -5 -4 -5 -10 -2 -5 3 -10 14 -10 23 0 15 2 15 10 2
5 -8 10 -19 10 -23z m-14 -55 c-9 -8 -13 0 -19 38 l-6 35 15 -34 c8 -18 13
-36 10 -39z m-27 -51 c1 -19 -25 -119 -56 -222 l-58 -189 -52 0 c-29 0 -53 1
-53 3 0 25 86 244 137 351 71 145 79 151 82 57z m95 -34 c36 -110 40 -125 31
-115 -15 15 -75 176 -75 202 0 16 2 27 4 25 2 -2 20 -53 40 -112z m14 -123
c22 -60 45 -139 51 -175 14 -82 14 -79 -3 -79 -14 0 -34 56 -84 235 -24 83
-42 169 -41 193 1 22 26 -36 77 -174z m-237 99 c-11 -27 -35 -84 -53 -128 -19
-44 -45 -113 -57 -152 -13 -40 -27 -73 -32 -73 -12 0 -12 -2 17 92 15 46 50
134 80 196 55 115 78 148 45 65z m197 -173 c22 -80 44 -153 47 -162 7 -16 -2
-18 -98 -18 l-105 0 28 103 c54 200 74 260 81 240 4 -10 25 -83 47 -163z m138
-178 c-8 -8 -12 -1 -20 33 l-6 30 16 -28 c8 -16 13 -31 10 -35z m-26 -41 c0
-10 2 -34 5 -52 l5 -34 -14 35 c-17 42 -20 70 -6 70 6 0 10 -8 10 -19z"/>
<path d="M1559 1133 c-68 -69 -84 -112 -84 -233 0 -70 4 -94 24 -135 35 -72
142 -174 224 -215 72 -36 140 -88 158 -122 21 -39 -44 -66 -111 -45 -24 8 -24
7 -6 -7 11 -9 35 -16 53 -16 41 0 42 -12 4 -39 -59 -43 -172 -12 -242 66 -45
49 -63 101 -56 159 5 49 3 53 -13 24 -27 -50 40 -226 99 -260 22 -13 4 -13
-20 1 -25 13 -99 126 -99 150 0 27 -21 34 -37 13 -31 -40 3 -181 53 -225 61
-53 193 -75 274 -44 25 9 61 23 80 30 39 14 80 66 80 100 0 12 9 40 20 63 22
45 26 105 9 149 -15 41 -57 81 -121 115 -79 42 -174 131 -204 191 -15 28 -29
79 -34 116 l-7 66 -1 -65 c-2 -71 16 -123 65 -187 28 -37 23 -37 -30 -1 -36
26 -67 88 -67 136 0 44 17 102 34 117 6 6 16 19 22 30 6 11 23 24 37 29 21 8
35 4 74 -20 64 -39 86 -83 72 -143 -13 -59 -3 -65 13 -7 12 44 13 45 25 24 7
-13 12 -17 13 -10 0 21 -75 144 -108 175 -16 16 -49 35 -73 42 l-44 14 43 0
c84 2 150 -50 172 -135 l10 -39 -5 38 c-3 32 -2 37 10 27 8 -6 21 -31 30 -54
13 -35 15 -51 6 -82 -15 -52 -12 -66 4 -29 24 51 18 97 -21 173 -20 39 -50 83
-67 99 -17 15 -25 20 -18 11 16 -22 18 -21 -43 -3 -27 8 -69 15 -94 15 -42 0
-50 -5 -103 -57z m151 -6 c20 -14 18 -14 -20 -13 -33 0 -46 -5 -76 -36 -23
-23 -41 -53 -50 -84 l-13 -49 0 52 c-1 28 4 55 9 58 6 4 17 23 26 43 8 20 20
40 27 45 16 11 72 2 97 -16z m-137 -37 c-3 -12 -8 -19 -11 -16 -5 6 5 36 12
36 2 0 2 -9 -1 -20z m-33 -15 c0 -8 -4 -15 -10 -15 -5 0 -7 7 -4 15 4 8 8 15
10 15 2 0 4 -7 4 -15z m-6 -123 c-1 -82 2 -92 39 -171 31 -63 57 -101 109
-152 38 -38 66 -69 62 -69 -18 0 -105 65 -156 117 -65 66 -97 129 -104 206
l-5 52 26 -30 c28 -31 28 -26 2 35 -14 32 -14 39 0 68 9 18 18 32 22 32 3 0 6
-39 5 -88z m91 -214 c16 -24 22 -38 14 -31 -15 12 -53 73 -46 73 2 0 17 -19
32 -42z m170 -82 c43 -30 68 -56 88 -94 16 -29 27 -57 25 -63 -4 -12 -268 226
-268 242 0 11 68 -26 155 -85z m-108 6 c81 -70 223 -206 219 -210 -3 -2 -31
20 -63 49 -119 111 -188 179 -182 179 3 0 15 -8 26 -18z m271 -202 c0 -34 0
-34 -9 9 -4 23 -11 53 -14 65 -2 12 2 8 10 -9 8 -16 14 -46 13 -65z m-388
-151 c43 -39 74 -49 154 -49 62 0 122 16 159 42 21 15 27 16 27 5 0 -16 -39
-68 -40 -53 0 5 8 19 18 30 9 11 -7 0 -36 -24 l-54 -45 -96 1 c-127 0 -174 22
-214 103 -26 50 -37 119 -22 134 3 3 19 -20 35 -51 16 -31 47 -73 69 -93z
m310 46 c-7 -9 -15 -13 -18 -10 -3 2 1 11 8 20 7 9 15 13 18 10 3 -2 -1 -11
-8 -20z m-200 -55 c8 -5 11 -10 5 -10 -5 0 -17 5 -25 10 -8 5 -10 10 -5 10 6
0 17 -5 25 -10z"/>
<path d="M1770 235 c-14 -8 -20 -14 -14 -15 5 0 19 7 30 15 24 18 16 19 -16 0z"/>
<path d="M161 1170 c-51 -11 -117 -43 -114 -56 1 -5 7 -10 14 -13 6 -2 9 1 5
7 -9 16 13 20 138 28 81 5 116 3 116 -4 0 -6 -15 -13 -32 -16 -129 -19 -177
-29 -173 -37 4 -5 -1 -6 -9 -3 -19 7 -57 -31 -50 -50 3 -8 19 -19 36 -25 48
-17 56 -13 19 10 -54 33 -27 48 102 55 59 4 107 5 108 3 0 -2 3 -156 6 -343 2
-186 9 -349 14 -363 12 -32 29 -20 29 20 0 21 -3 28 -9 19 -15 -25 -21 46 -19
242 1 170 2 180 9 96 4 -52 12 -131 17 -175 6 -44 14 -109 17 -145 9 -92 24
-163 35 -174 7 -7 9 127 8 389 -2 400 -2 400 -8 150 -4 -137 -8 -259 -9 -270
l-2 -20 -9 20 c-5 11 -9 140 -9 286 -1 291 -3 279 56 279 l26 0 -7 -97 c-10
-129 -7 -705 4 -761 4 -24 12 -48 16 -52 5 -5 8 193 6 450 l-3 460 58 0 c76 0
325 23 295 28 -12 2 -20 8 -17 13 4 5 -6 14 -21 21 l-27 13 24 6 c13 4 -14 7
-62 8 -47 1 -187 3 -310 6 -123 2 -244 0 -268 -5z m158 -4 c-2 -2 -38 -6 -79
-9 -44 -3 -63 -2 -45 3 30 8 132 13 124 6z m401 -26 c24 -5 -9 -8 -107 -9
-129 -1 -168 6 -130 23 16 7 191 -3 237 -14z m-262 -7 c3 -9 -12 -13 -52 -13
-44 0 -56 3 -56 16 0 12 10 14 52 12 30 -2 53 -8 56 -15z m2 -33 c0 -5 -18 -9
-40 -8 -22 1 -40 4 -40 8 0 3 18 7 40 8 22 2 40 -2 40 -8z m193 3 c-35 -2 -91
-2 -125 0 -35 2 -7 3 62 3 69 0 97 -1 63 -3z m-323 -13 c0 -6 -33 -9 -82 -9
-63 1 -75 3 -48 9 53 11 130 11 130 0z m-173 -16 c-3 -3 -12 -4 -19 -1 -8 3
-5 6 6 6 11 1 17 -2 13 -5z m211 -161 l-1 -158 -7 135 c-4 74 -10 145 -14 158
-6 16 -3 22 8 22 14 0 16 -20 14 -157z m-31 25 c-3 -7 -5 -2 -5 12 0 14 2 19
5 13 2 -7 2 -19 0 -25z"/>
<path d="M2172 1065 c0 -16 2 -22 5 -12 2 9 2 23 0 30 -3 6 -5 -1 -5 -18z"/>
<path d="M3584 585 c-10 -57 0 -373 14 -387 8 -8 10 43 5 203 -3 118 -7 216
-9 218 -1 1 -6 -13 -10 -34z"/>
</g>
</svg>
